<svg id="visual" viewBox="0 0 900 600" width="900" height="600" xmlns="http://www.w3.org/2000/svg" xmlns:xlink="http://www.w3.org/1999/xlink" version="1.1"><path d="M0 31L129 55L257 13L386 43L514 49L643 67L771 19L900 55L900 0L771 0L643 0L514 0L386 0L257 0L129 0L0 0Z" fill="#41ae9e"></path><path d="M0 79L129 103L257 73L386 61L514 85L643 121L771 37L900 109L900 53L771 17L643 65L514 47L386 41L257 11L129 53L0 29Z" fill="#3bb0a7"></path><path d="M0 115L129 139L257 115L386 79L514 115L643 151L771 49L900 139L900 107L771 35L643 119L514 83L386 59L257 71L129 101L0 77Z" fill="#37b3b0"></path><path d="M0 211L129 193L257 181L386 127L514 151L643 211L771 91L900 193L900 137L771 47L643 149L514 113L386 77L257 113L129 137L0 113Z" fill="#34b5b9"></path><path d="M0 271L129 259L257 247L386 169L514 217L643 253L771 133L900 259L900 191L771 89L643 209L514 149L386 125L257 179L129 191L0 209Z" fill="#33b7c2"></path><path d="M0 325L129 343L257 313L386 349L514 343L643 295L771 259L900 319L900 257L771 131L643 251L514 215L386 167L257 245L129 257L0 269Z" fill="#34b8c6"></path><path d="M0 349L129 349L257 319L386 385L514 361L643 325L771 295L900 325L900 317L771 257L643 293L514 341L386 347L257 311L129 341L0 323Z" fill="#34b8c6"></path><path d="M0 379L129 355L257 343L386 403L514 385L643 343L771 331L900 331L900 323L771 293L643 323L514 359L386 383L257 317L129 347L0 347Z" fill="#33b7c2"></path><path d="M0 415L129 409L257 355L386 451L514 421L643 391L771 373L900 385L900 329L771 329L643 341L514 383L386 401L257 341L129 353L0 377Z" fill="#34b5b9"></path><path d="M0 523L129 511L257 529L386 517L514 523L643 577L771 565L900 529L900 383L771 371L643 389L514 419L386 449L257 353L129 407L0 413Z" fill="#37b3b0"></path><path d="M0 559L129 553L257 565L386 559L514 565L643 589L771 577L900 571L900 527L771 563L643 575L514 521L386 515L257 527L129 509L0 521Z" fill="#3bb0a7"></path><path d="M0 601L129 601L257 601L386 601L514 601L643 601L771 601L900 601L900 569L771 575L643 587L514 563L386 557L257 563L129 551L0 557Z" fill="#41ae9e"></path></svg>